<svg width="18" height="18" viewBox="0 0 18 18" fill="none" xmlns="http://www.w3.org/2000/svg">
<g clip-path="url(#clip0_119_10690)">
<path d="M6.92992 3.09888C5.81225 3.14921 4.71599 3.27159 3.64704 3.39523C2.41338 3.53794 1.42677 4.52407 1.2889 5.75827C1.13392 7.14566 0.984375 8.57917 0.984375 10.0458C0.984375 11.5125 1.13392 12.946 1.2889 14.3334C1.42677 15.5675 2.41338 16.5537 3.64703 16.6964C5.04103 16.8576 6.48148 17.0168 7.95528 17.0168C9.42908 17.0168 10.8695 16.8576 12.2635 16.6964C13.4972 16.5537 14.4838 15.5677 14.6217 14.3334C14.7331 13.3354 14.8418 12.3135 14.894 11.2726" stroke="#313B6B" stroke-width="1.5" stroke-linecap="round"/>
<path d="M12.9967 1.67484L8.25894 7.05062L7.60989 10.1033C7.50545 10.5945 8.01746 11.0593 8.49695 10.9085L11.5349 9.9535L16.4284 4.80433C17.2412 3.94912 17.0994 2.51871 16.1156 1.64852C15.1548 0.798718 13.7585 0.810503 12.9967 1.67484Z" stroke="#313B6B" stroke-width="1.5" stroke-linecap="round" stroke-linejoin="round"/>
</g>
<defs>
<clipPath id="clip0_119_10690">
<rect width="18" height="18" fill="white"/>
</clipPath>
</defs>
</svg>
