<svg width="18" height="18" viewBox="0 0 18 18" fill="none" xmlns="http://www.w3.org/2000/svg">
<path d="M1.32601 13.5471C1.4789 14.7786 2.47375 15.7514 3.70794 15.8805C5.41576 16.0589 7.18575 16.2474 8.99958 16.2474C10.8134 16.2474 12.5834 16.0589 14.2912 15.8805C15.5254 15.7514 16.5202 14.7786 16.6731 13.5471C16.8557 12.0768 17.0353 10.5563 17.0353 8.99994C17.0353 7.44353 16.8557 5.92303 16.6731 4.45276C16.5202 3.22131 15.5254 2.24848 14.2912 2.11946C12.5834 1.94094 10.8134 1.75244 8.99958 1.75244C7.18575 1.75244 5.41574 1.94094 3.70794 2.11946C2.47375 2.24848 1.4789 3.22131 1.326 4.45276C1.14347 5.92303 0.963867 7.44353 0.963867 8.99994C0.963867 10.5563 1.14347 12.0768 1.32601 13.5471Z" stroke="#313B6B" stroke-width="1.5"/>
<path d="M1.3623 4.11987L7.40789 8.88661C8.34162 9.62283 9.65838 9.62283 10.5921 8.88661L16.6377 4.11987" stroke="#313B6B" stroke-width="1.5" stroke-linejoin="round"/>
</svg>
