<svg width="18" height="18" viewBox="0 0 18 18" fill="none" xmlns="http://www.w3.org/2000/svg">
<path d="M2.42705 13.6365C2.63613 15.4812 4.19599 16.9194 6.05123 16.9852C6.99232 17.0186 7.95864 17.0358 9.00014 17.0358C10.0416 17.0358 11.0079 17.0186 11.949 16.9852C13.8043 16.9194 15.3641 15.4812 15.5733 13.6365C15.646 12.9936 15.6966 12.3403 15.6966 11.6787C15.6966 11.017 15.646 10.3638 15.5733 9.72083C15.3641 7.87623 13.8043 6.43802 11.949 6.37219C11.0079 6.33879 10.0416 6.32153 9.00014 6.32153C7.95864 6.32153 6.99232 6.33879 6.05123 6.37219C4.19599 6.43802 2.63613 7.87623 2.42705 9.72083C2.35416 10.3638 2.30371 11.017 2.30371 11.6787C2.30371 12.3403 2.35416 12.9936 2.42705 13.6365Z" stroke="#313B6B" stroke-width="1.5"/>
<path d="M12.75 6.32138V4.71424C12.75 3.71967 12.3549 2.76584 11.6517 2.06258C10.9484 1.35932 9.99457 0.964233 9 0.964233C8.00544 0.964233 7.05162 1.35932 6.34836 2.06258C5.64509 2.76584 5.25 3.71967 5.25 4.71424V6.32138" stroke="#313B6B" stroke-width="1.5" stroke-linecap="round" stroke-linejoin="round"/>
<path d="M9 10.9286V12.2142" stroke="#313B6B" stroke-width="1.5" stroke-linecap="round" stroke-linejoin="round"/>
</svg>
