<!DOCTYPE svg PUBLIC "-//W3C//DTD SVG 1.1//EN" "http://www.w3.org/Graphics/SVG/1.1/DTD/svg11.dtd">
<!-- Uploaded to: SVG Repo, www.svgrepo.com, Transformed by: SVG Repo Mixer Tools -->
<svg fill="#313B6B" width="800px" height="800px" viewBox="0 0 24 24" xmlns="http://www.w3.org/2000/svg">
<g id="SVGRepo_bgCarrier" stroke-width="0"/>
<g id="SVGRepo_tracerCarrier" stroke-linecap="round" stroke-linejoin="round"/>
<g id="SVGRepo_iconCarrier">
<path d="M22,7H17V2a1,1,0,0,0-1-1H8A1,1,0,0,0,7,2V7H2A1,1,0,0,0,1,8V22a1,1,0,0,0,1,1H22a1,1,0,0,0,1-1V8A1,1,0,0,0,22,7ZM3,9H7V21H3ZM9,8V3h6V21H13V19a1,1,0,0,0-2,0v2H9ZM21,21H17V9h4ZM13,7H11V5h2Zm0,4H11V9h2Zm0,4H11V13h2ZM4,10H6v2H4Zm0,4H6v2H4Zm0,4H6v2H4Zm16-6H18V10h2Zm0,4H18V14h2Zm0,4H18V18h2Z"/>
</g>
</svg>