<svg width="18" height="18" viewBox="0 0 18 18" fill="none" xmlns="http://www.w3.org/2000/svg">
<path d="M6.75 16.5H11.25C15 16.5 16.5 15 16.5 11.25V6.75C16.5 3 15 1.5 11.25 1.5H6.75C3 1.5 1.5 3 1.5 6.75V11.25C1.5 15 3 16.5 6.75 16.5Z" stroke="#313B6B" stroke-width="1.5" stroke-linecap="round" stroke-linejoin="round"/>
<path d="M11.6775 13.875V10.95" stroke="#313B6B" stroke-width="1.5" stroke-miterlimit="10" stroke-linecap="round" stroke-linejoin="round"/>
<path d="M11.6775 5.5875V4.125" stroke="#313B6B" stroke-width="1.5" stroke-miterlimit="10" stroke-linecap="round" stroke-linejoin="round"/>
<path d="M11.6775 9.4874C12.7545 9.4874 13.6275 8.61436 13.6275 7.5374C13.6275 6.46045 12.7545 5.5874 11.6775 5.5874C10.6006 5.5874 9.72754 6.46045 9.72754 7.5374C9.72754 8.61436 10.6006 9.4874 11.6775 9.4874Z" stroke="#313B6B" stroke-width="1.5" stroke-miterlimit="10" stroke-linecap="round" stroke-linejoin="round"/>
<path d="M6.32251 13.8751V12.4126" stroke="#313B6B" stroke-width="1.5" stroke-miterlimit="10" stroke-linecap="round" stroke-linejoin="round"/>
<path d="M6.32251 7.05V4.125" stroke="#313B6B" stroke-width="1.5" stroke-miterlimit="10" stroke-linecap="round" stroke-linejoin="round"/>
<path d="M6.32256 12.4125C7.39951 12.4125 8.27256 11.5394 8.27256 10.4625C8.27256 9.3855 7.39951 8.51245 6.32256 8.51245C5.2456 8.51245 4.37256 9.3855 4.37256 10.4625C4.37256 11.5394 5.2456 12.4125 6.32256 12.4125Z" stroke="#313B6B" stroke-width="1.5" stroke-miterlimit="10" stroke-linecap="round" stroke-linejoin="round"/>
</svg>
