<svg width="18" height="18" viewBox="0 0 18 18" fill="none" xmlns="http://www.w3.org/2000/svg">
<g id="User">
<g id="Profile">
<path id="Stroke 1" fill-rule="evenodd" clip-rule="evenodd" d="M8.88341 16.2465C6.11455 16.2465 3.75 15.8156 3.75 14.09C3.75 12.3644 6.09955 10.7715 8.88341 10.7715C11.6523 10.7715 14.0168 12.349 14.0168 14.0746C14.0168 15.7995 11.6673 16.2465 8.88341 16.2465Z" stroke="#313B6B" stroke-width="1.5" stroke-linecap="round" stroke-linejoin="round"/>
<path id="Stroke 3" fill-rule="evenodd" clip-rule="evenodd" d="M8.87788 8.38028C10.6949 8.38028 12.1676 6.90755 12.1676 5.0905C12.1676 3.27346 10.6949 1.80005 8.87788 1.80005C7.06083 1.80005 5.58742 3.27346 5.58742 5.0905C5.58129 6.90141 7.04379 8.37414 8.85469 8.38028C8.86288 8.38028 8.87038 8.38028 8.87788 8.38028Z" stroke="#313B6B" stroke-width="1.5" stroke-linecap="round" stroke-linejoin="round"/>
</g>
</g>
</svg>
